<?xml version="1.0" standalone="no"?><!DOCTYPE svg PUBLIC "-//W3C//DTD SVG 1.1//EN" "http://www.w3.org/Graphics/SVG/1.1/DTD/svg11.dtd"><svg t="1499216970598" class="icon" style="" viewBox="0 0 1024 1024" version="1.1" xmlns="http://www.w3.org/2000/svg" p-id="9296" xmlns:xlink="http://www.w3.org/1999/xlink" width="32" height="32"><defs><style type="text/css"></style></defs><path d="M512 32C246.4 32 32 246.4 32 512c0 265.6 214.4 480 480 480 265.6 0 480-214.4 480-480C992 246.4 777.6 32 512 32zM512 960C265.6 960 64 758.4 64 512 64 265.6 265.6 64 512 64s448 201.6 448 448C960 758.4 758.4 960 512 960zM336 633.6l-121.6 176 352-243.2 243.2-352-352 243.2L336 633.6zM659.2 364.8l-121.6 172.8-172.8 121.6 3.2-3.2 118.4-169.6L659.2 364.8zM659.2 364.8l-172.8 121.6 54.4 54.4L659.2 364.8z" fill="#8a8a8a" p-id="9297"></path></svg>