<?xml version="1.0" standalone="no"?><!DOCTYPE svg PUBLIC "-//W3C//DTD SVG 1.1//EN" "http://www.w3.org/Graphics/SVG/1.1/DTD/svg11.dtd"><svg t="1499217052039" class="icon" style="" viewBox="0 0 1024 1024" version="1.1" xmlns="http://www.w3.org/2000/svg" p-id="10801" xmlns:xlink="http://www.w3.org/1999/xlink" width="32" height="32"><defs><style type="text/css"></style></defs><path d="M882.547 962h-741.945l-4.993-2.889c-2.933-1.695-29.059-16.949-41.798-27.537-20.988-17.41-32.287-41.873-31.785-68.866l0.095-7.238c0.137-14.503 0.281-29.509 4.333-44.804 9.513-36.032 36.234-59.384 62.788-80.246 34.761-27.331 75.838-50.515 133.175-75.165 27.305-11.738 56.491-22.997 89.225-34.357 14.032-4.875 28.685-20.132 37.329-38.84 6.838-14.794 8.865-29.546 5.556-39.929l-1.597-1.883c-38.939-47.216-69.898-89.118-84.559-161.846-11.788-58.423-10.095-113.625 5.024-164.062 23.168-77.333 73.196-127.605 144.652-145.39 10.786-2.689 21.269-4.583 31.657-5.692v-1.192l43.733-0.063v1.255c10.376 1.109 20.882 3.004 31.676 5.703 71.444 17.775 121.462 68.047 144.642 145.378 15.097 50.429 16.789 105.62 5.031 164.053-14.702 72.746-45.651 114.651-84.578 161.855l-1.422 1.676c-0.064 0.061-0.104 0.126-0.146 0.189-3.321 10.483-1.294 25.194 5.534 39.947 8.647 18.726 23.285 33.963 37.319 38.815 32.643 11.364 61.816 22.601 89.239 34.382 57.323 24.651 98.38 47.835 133.175 75.165 25.373 19.942 53.253 44.215 62.777 80.268 4.029 15.234 4.176 30.215 4.323 44.697l0.106 7.324c0.499 26.993-10.797 51.456-31.807 68.886-12.739 10.568-38.824 25.822-41.768 27.517l-4.993 2.889zM511.486 104.919h-0.281c-13.984 0.074-27.985 1.913-42.822 5.618-56.814 14.135-95.177 53.204-114.037 116.124-13.251 44.227-14.577 91.088-4.061 143.245 11.736 58.174 32.807 91.14 75.618 143.056 2.664 3.087 5.882 6.822 7.947 12.134 8.28 21.406 6.067 48.717-6.067 74.978-13.698 29.627-36.922 52.542-62.129 61.308-31.754 11.030-59.998 21.912-86.365 33.251-53.796 23.121-91.93 44.571-123.662 69.514-21.707 17.034-41.695 34.256-47.835 57.503-2.681 10.109-2.788 21.824-2.902 34.234l-0.095 7.596c-0.261 14.103 5.223 25.906 16.31 35.093 6.997 5.818 21.968 15.128 31.033 20.567h718.858c9.065-5.438 24.058-14.771 31.013-20.546 11.11-9.206 16.602-21.010 16.33-35.092l-0.105-7.699c-0.101-12.368-0.228-24.068-2.901-34.131-6.14-23.269-26.126-40.492-47.826-57.525-31.743-24.943-69.876-46.393-123.653-69.514-26.457-11.383-54.715-22.266-86.375-33.27-25.205-8.748-48.429-31.662-62.129-61.29-12.131-26.262-14.348-53.573-6.075-74.956 2.004-5.283 5.283-9.049 7.224-11.3 43.522-52.765 64.613-85.74 76.351-143.914 10.505-52.168 9.189-99.031-4.072-143.245-18.859-62.921-57.202-101.99-114.005-116.116-14.847-3.714-28.86-5.553-42.842-5.627h-0.446z" p-id="10802" fill="#8a8a8a"></path></svg>